<svg xmlns="http://www.w3.org/2000/svg" viewBox="0 0 1200 630" width="1200" height="630">
  <rect width="1200" height="630" fill="#fff"/>
  <g transform="translate(600,280) scale(3.5)">
    <!-- pod -->
    <ellipse cx="0" cy="14" rx="28" ry="16" fill="#7ec850"/>
    <!-- left pea -->
    <circle cx="-8" cy="4" r="12" fill="#a8e06c"/>
    <circle cx="-11" cy="2" r="1.5" fill="#333"/>
    <circle cx="-5" cy="2" r="1.5" fill="#333"/>
    <ellipse cx="-13" cy="5" rx="2.5" ry="1.5" fill="rgba(255,130,130,0.45)"/>
    <ellipse cx="-3" cy="5" rx="2.5" ry="1.5" fill="rgba(255,130,130,0.45)"/>
    <path d="M-10 7 Q-8 9 -6 7" stroke="#333" stroke-width="1" fill="none" stroke-linecap="round"/>
    <!-- right pea -->
    <circle cx="8" cy="4" r="12" fill="#a8e06c"/>
    <circle cx="5" cy="2" r="1.5" fill="#333"/>
    <circle cx="11" cy="2" r="1.5" fill="#333"/>
    <ellipse cx="3" cy="5" rx="2.5" ry="1.5" fill="rgba(255,130,130,0.45)"/>
    <ellipse cx="13" cy="5" rx="2.5" ry="1.5" fill="rgba(255,130,130,0.45)"/>
    <path d="M6 7 Q8 9 10 7" stroke="#333" stroke-width="1" fill="none" stroke-linecap="round"/>
    <!-- leaf -->
    <path d="M6-10 Q16-18 10-22" fill="#5aad2b" stroke="none"/>
    <!-- heart -->
    <text x="0" y="-22" text-anchor="middle" font-size="14">💕</text>
  </g>
  <text x="600" y="520" text-anchor="middle" font-family="system-ui, sans-serif" font-size="48" fill="#7ec850" font-weight="bold">Kawaii Peas</text>
  <text x="600" y="570" text-anchor="middle" font-family="system-ui, sans-serif" font-size="24" fill="#bbb">tap them to make them kiss!</text>
</svg>
